<svg width="21" height="26" viewBox="0 0 21 26" fill="none" xmlns="http://www.w3.org/2000/svg">
<path d="M11.8456 1.00792e-06V0.7072C11.0441 0.730773 10.4312 0.825067 10.0068 0.990081C9.6061 1.13152 9.33501 1.4144 9.19357 1.83872C9.05213 2.23947 8.98141 2.87595 8.98141 3.74816V21.8525C8.98141 22.5361 9.02856 23.0547 9.12285 23.4083C9.24072 23.7383 9.44109 23.9623 9.72397 24.0802C10.0068 24.1745 10.4312 24.2216 10.9969 24.2216H12.4467C13.1539 24.2216 13.8611 24.0094 14.5683 23.5851C15.2755 23.1608 15.9355 22.5715 16.5484 21.8171C17.1614 21.0392 17.6918 20.1552 18.1396 19.1651C18.5875 18.1515 18.9058 17.0671 19.0944 15.912H19.9077C19.8369 16.7371 19.8016 17.7979 19.8016 19.0944C19.8016 19.6837 19.8134 20.5324 19.8369 21.6403C19.8605 22.7247 19.9312 23.8562 20.0491 25.0349C18.8469 24.9877 17.4914 24.9642 15.9827 24.9642C14.474 24.9406 13.1303 24.9288 11.9516 24.9288C11.3387 24.9288 10.5608 24.9288 9.61789 24.9288C8.67496 24.9288 7.64952 24.9406 6.54157 24.9642C5.43362 24.9642 4.31389 24.9759 3.18237 24.9995C2.05085 24.9995 0.990049 25.0113 -3.13394e-05 25.0349V24.3277C0.730742 24.2805 1.27293 24.1862 1.62653 24.0448C2.0037 23.9034 2.25122 23.6205 2.36909 23.1962C2.51053 22.7718 2.58125 22.1354 2.58125 21.2867V3.74816C2.58125 2.87595 2.51053 2.23947 2.36909 1.83872C2.25122 1.4144 2.0037 1.13152 1.62653 0.990081C1.27293 0.825067 0.730742 0.730773 -3.13394e-05 0.7072V1.00792e-06C0.636449 0.023574 1.48509 0.0471471 2.54589 0.0707201C3.60669 0.0942931 4.73821 0.10608 5.94045 0.10608C7.0484 0.10608 8.13277 0.0942931 9.19357 0.0707201C10.2544 0.0471471 11.1384 0.023574 11.8456 1.00792e-06Z" fill="#B5483A"/>
</svg>
